<?xml version="1.0" encoding="utf-8"?>
<!-- Generator: Adobe Illustrator 16.0.0, SVG Export Plug-In . SVG Version: 6.00 Build 0)  -->
<!DOCTYPE svg PUBLIC "-//W3C//DTD SVG 1.1//EN" "http://www.w3.org/Graphics/SVG/1.1/DTD/svg11.dtd">
<svg version="1.1" id="Layer_1" xmlns="http://www.w3.org/2000/svg" xmlns:xlink="http://www.w3.org/1999/xlink" x="0px" y="0px"
	 width="600px" height="400px" viewBox="0 0 600 400" enable-background="new 0 0 600 400" xml:space="preserve">
<g>
	<g>
		<defs>
			<path id="SVGID_1_" d="M504.214,369.963c0,0,87.845-39.065,85.803-117.883c-2.043-78.819-85.297-115.471-141.818-66.809
				c-56.52,48.661-93.099,7.855-122.38-33.267c-29.281-41.124-94.603-93.02-180.306-69.04C55.733,108.086,28.106,199.007,37,259.679
				c6.387,43.58,29.749,80.529,61.583,108.92c1.035,0.924,2.096,1.836,3.181,2.735L504.214,369.963z"/>
		</defs>
		<use xlink:href="#SVGID_1_"  overflow="visible" fill="#EAECF7"/>
		<clipPath id="SVGID_2_">
			<use xlink:href="#SVGID_1_"  overflow="visible"/>
		</clipPath>
	</g>
</g>
<g>
	<g>
		<g>
			<rect x="265.373" y="343.927" fill="#4B56A6" width="73.429" height="17.967"/>
			<path fill="#5C64AE" d="M352.668,371.268H251.507c-2.588,0-4.688-2.1-4.688-4.688l0,0c0-2.588,2.1-4.687,4.688-4.687h101.161
				c2.59,0,4.688,2.099,4.688,4.687l0,0C357.355,369.168,355.258,371.268,352.668,371.268z"/>
		</g>
		<g>
			<path fill="#5C64AE" d="M467.296,137.157c0-5.852-4.743-10.594-10.593-10.594H147.472c-5.852,0-10.594,4.742-10.594,10.594
				v178.987h330.418V137.157z"/>
			<rect x="151.056" y="141.717" fill="#EAECF7" width="302.063" height="160.6"/>
			<path fill="#FFFFFF" d="M147.472,345.764h309.231c5.85,0,10.593-4.743,10.593-10.593v-19.026H136.878v19.026
				C136.878,341.021,141.62,345.764,147.472,345.764z"/>
			<circle fill="#4B56A6" cx="302.087" cy="330.954" r="6.281"/>
		</g>
	</g>
	<g opacity="0.57">
		<polygon fill="#FFFFFF" points="234.938,141.717 165.978,302.338 190.383,302.338 260.099,141.717 		"/>
		<polygon fill="#FFFFFF" points="410.866,141.717 341.907,302.338 366.311,302.338 436.026,141.717 		"/>
		<polygon fill="#FFFFFF" points="291.217,141.717 222.257,302.338 294.49,302.338 364.205,141.717 		"/>
	</g>
	<g>
		<g>
			<g>
				<rect x="172.569" y="175.246" fill="#FFFFFF" width="128.197" height="90.807"/>
				
					<rect x="172.569" y="175.246" fill="none" stroke="#A6C8E9" stroke-width="3.0138" stroke-linecap="round" stroke-linejoin="round" stroke-miterlimit="10" width="128.197" height="90.807"/>
			</g>
		</g>
		<g>
			
				<line fill="none" stroke="#FFFFFF" stroke-width="2.8055" stroke-miterlimit="10" x1="315.462" y1="182.094" x2="432.636" y2="182.094"/>
			
				<line fill="none" stroke="#FFFFFF" stroke-width="2.8055" stroke-miterlimit="10" x1="315.462" y1="209.494" x2="387.508" y2="209.494"/>
			
				<line fill="none" stroke="#FFFFFF" stroke-width="2.8055" stroke-miterlimit="10" x1="315.462" y1="195.652" x2="336.125" y2="195.652"/>
		</g>
		<g>
			
				<line fill="none" stroke="#FFFFFF" stroke-width="2.8055" stroke-miterlimit="10" x1="315.462" y1="227.303" x2="432.636" y2="227.303"/>
			
				<line fill="none" stroke="#FFFFFF" stroke-width="2.8055" stroke-miterlimit="10" x1="315.462" y1="254.704" x2="432.636" y2="254.704"/>
			
				<line fill="none" stroke="#FFFFFF" stroke-width="2.8055" stroke-miterlimit="10" x1="315.462" y1="240.862" x2="384.594" y2="240.862"/>
		</g>
		<circle fill="#EF4566" cx="234.126" cy="220.115" r="28.163"/>
		
			<line fill="none" stroke="#FFFFFF" stroke-width="4.2082" stroke-linecap="round" stroke-linejoin="round" stroke-miterlimit="10" x1="219.851" y1="220.115" x2="247.52" y2="220.115"/>
	</g>
</g>
<g>
	<g>
		<polygon fill="#211D53" points="487.045,274.211 493.131,363.727 502.738,363.702 504.734,274.169 		"/>
		<path fill="#243151" d="M485.157,371.059h17.529v-8.128h-9.401C488.797,362.931,485.157,366.57,485.157,371.059L485.157,371.059z"
			/>
	</g>
	<g>
		<path fill="#243151" d="M505.904,371.059h18.278l-0.749-8.128h-9.401C509.544,362.931,505.904,366.57,505.904,371.059
			L505.904,371.059z"/>
		<polygon fill="#2D307A" points="517.31,274.265 523.434,362.931 514.029,363.225 498.322,274.265 		"/>
	</g>
</g>
<g>
	<path fill="#EF4566" d="M500.904,228.174l24.954,22.275c2.068,1.849,5.175,1.917,7.323,0.162l0,0c2.449-2,2.776-5.623,0.725-8.029
		c0,0-12.053-16.171-18.806-21.542L500.904,228.174z"/>
	<g>
		<circle fill="#F79B6F" cx="533.428" cy="282.395" r="5.994"/>
		<path fill="#EF4566" d="M525.705,247.936l3.29,29.819h8.556l-1.948-30.79c-0.207-2.907-2.858-5.015-5.737-4.56l0,0
			C527.212,242.824,525.371,245.271,525.705,247.936z"/>
	</g>
</g>
<g>
	<path fill="#EF4566" d="M498.339,216.854c0,0-12.239,0.386-12.893,12.63c-0.657,12.316,1.428,44.781,1.428,44.781h30.436
		l0.771-39.763c1.9-10.628-3.483-17.384-14.397-17.794C502.043,216.646,500.266,216.689,498.339,216.854z"/>
	<polygon fill="#D83158" points="517.907,243.354 512.669,238.677 517.721,253.049 	"/>
</g>
<g>
	<g>
		<circle fill="#F79B6F" cx="450.903" cy="206.312" r="5.995"/>
		<path fill="#EF4566" d="M469.804,238.87l-12.906-29.314l-8.229,2.598l11.639,29.669c0.79,2.806,3.814,4.333,6.542,3.306l0,0
			C469.361,244.181,470.668,241.412,469.804,238.87z"/>
	</g>
	<g>
		<path fill="#EF4566" d="M493.584,217.926c-16.127,6.699-30.655,16.985-30.655,16.985c-2.432,1.334-3.531,4.238-2.594,6.851l0,0
			c1.067,2.976,4.374,4.493,7.326,3.361l24.594-11.967L493.584,217.926z"/>
		<polygon fill="#D83158" points="485.318,236.531 485.446,229.483 479.872,239.182 		"/>
	</g>
</g>
<g>
	<g>
		<path fill="#F79B6F" d="M494.795,209.9l0.387,8.225c0.083,1.79,1.206,3.364,2.872,4.027l0,0c3.162,1.255,6.535-1.269,6.224-4.656
			l-0.497-8.175L494.795,209.9z"/>
		<path fill="#E88057" d="M495.072,215.773c0,0,7.62,1.046,8.708-6.452c1.088-7.497-7.252-4.396-7.252-4.396l-1.678,6.159
			L495.072,215.773z"/>
		<g>
			<defs>
				<circle id="XMLID_13_" cx="499.265" cy="199.553" r="13.405"/>
			</defs>
			<use xlink:href="#XMLID_13_"  overflow="visible" fill="#F79B6F"/>
			<clipPath id="XMLID_2_">
				<use xlink:href="#XMLID_13_"  overflow="visible"/>
			</clipPath>
			<path clip-path="url(#XMLID_2_)" fill="#243151" d="M503.189,203.587c0,0-5.29,9.581,2.153,12.216s9.581-18.08,9.581-18.08
				l-8.054-15.787l-19.639-1.362l-1.096,6.8c0,0,1.875,6.621,18.344,12.853L503.189,203.587z"/>
			<polygon clip-path="url(#XMLID_2_)" fill="#243151" points="499.178,196.056 501.502,203.867 507.42,200.41 			"/>
		</g>
		<circle fill="#F79B6F" cx="504.517" cy="203.352" r="3.586"/>
	</g>
	<g>
		<path fill="#FDD63D" d="M485.559,195.231c0,0-0.659-9.59,7.409-14.585c6.651-4.12,15.634-1.87,19.311,5.037
			c1.729,3.243,2.709,6.418,1.565,12.694L485.559,195.231z"/>
		<path fill="#F2A62F" d="M513.445,199.767c-0.052,0-0.104-0.002-0.158-0.008l-32.174-3.456c-0.768-0.086-1.317-0.777-1.232-1.543
			c0.087-0.764,0.764-1.306,1.544-1.231l32.174,3.457c0.766,0.086,1.317,0.776,1.231,1.542
			C514.75,199.241,514.145,199.767,513.445,199.767z"/>
	</g>
</g>
<g>
	<g>
		<circle fill="#5C64AE" cx="480.507" cy="75.926" r="25.055"/>
		<g>
			<path fill="#FFFFFF" d="M484.177,86.796c0,4.837-7.339,4.837-7.339,0C476.838,81.917,484.177,81.917,484.177,86.796z
				 M483.739,62.104l-0.168,18.08H477.4c0-6.839-0.125-11.199-0.125-18.08H483.739z"/>
		</g>
	</g>
	<g>
		<path fill="#EAECF7" d="M320.408,31.281l2.059,5.357c1.268,3.295,3.872,5.9,7.167,7.167l5.357,2.06l-5.357,2.06
			c-3.295,1.267-5.899,3.871-7.167,7.167l-2.059,5.357l-2.061-5.357c-1.267-3.296-3.87-5.9-7.167-7.167l-5.356-2.06l5.356-2.06
			c3.297-1.266,5.9-3.871,7.167-7.167L320.408,31.281z"/>
		<path fill="#EAECF7" d="M377.898,77.447l1.382,3.591c0.849,2.208,2.595,3.955,4.803,4.804l3.593,1.381l-3.593,1.38
			c-2.208,0.85-3.954,2.595-4.803,4.805L377.898,97l-1.381-3.591c-0.849-2.209-2.594-3.955-4.805-4.805l-3.59-1.38l3.59-1.381
			c2.211-0.849,3.956-2.596,4.805-4.804L377.898,77.447z"/>
		<path fill="#EAECF7" d="M29.553,108.132l1.121,2.916c0.69,1.794,2.107,3.211,3.9,3.901l2.917,1.121l-2.917,1.121
			c-1.793,0.689-3.21,2.107-3.9,3.9l-1.121,2.916l-1.121-2.916c-0.688-1.793-2.107-3.211-3.9-3.9l-2.916-1.121l2.916-1.121
			c1.793-0.689,3.212-2.107,3.9-3.901L29.553,108.132z"/>
		<path fill="#EAECF7" d="M561.063,122.907l1.121,2.916c0.689,1.793,2.106,3.211,3.9,3.9l2.916,1.121l-2.916,1.121
			c-1.794,0.689-3.211,2.106-3.9,3.9l-1.121,2.916l-1.12-2.916c-0.689-1.794-2.108-3.211-3.901-3.9l-2.915-1.121l2.915-1.121
			c1.793-0.689,3.212-2.107,3.901-3.9L561.063,122.907z"/>
	</g>
</g>
<g>
	<g>
		<g>
			<path fill="#F79B6F" d="M156.147,63.354l5.774,5.869c1.257,1.278,3.145,1.702,4.827,1.083l0,0
				c3.192-1.174,4.022-5.304,1.529-7.62l-5.823-5.758L156.147,63.354z"/>
			<path fill="#E88057" d="M160.272,67.546c0,0,3.609-7.442,2.182-10.617c-3.107-6.909-8.335,1.563-8.335,1.563l2.86,5.708
				L160.272,67.546z"/>
		</g>
		<g>
			<g>
				<defs>
					<circle id="XMLID_17_" cx="152.573" cy="52.665" r="13.406"/>
				</defs>
				<use xlink:href="#XMLID_17_"  overflow="visible" fill="#F79B6F"/>
				<clipPath id="XMLID_3_">
					<use xlink:href="#XMLID_17_"  overflow="visible"/>
				</clipPath>
				<path clip-path="url(#XMLID_3_)" fill="#243151" d="M158.188,53.051c0,0,2.451,10.667,9.754,7.664
					c7.303-3.003-4.925-19.86-4.925-19.86l-16.533-6.387l-15.535,12.087l1.728,10.468c0,0,5.542-3.947,21.967-10.292L158.188,53.051
					z"/>
				<polygon clip-path="url(#XMLID_3_)" fill="#243151" points="150.175,50.117 157.118,54.386 159.221,47.861 				"/>
			</g>
		</g>
		<path fill="#243151" d="M158.958,55.576c0,0,11.564,31.507,25.959,17.131c12.767-12.75-6.539-20.503-11.77-21.869
			c-3.999-1.045-5.53-2.41-10.576-7.096l-10.009,1.438L158.958,55.576z"/>
		<circle fill="#F79B6F" cx="159.021" cy="51.99" r="3.586"/>
		<g>
			<path fill="#FDD63D" d="M137.85,54.497c0,0-5.285-8.029-0.713-16.343c3.77-6.856,12.698-9.309,19.294-5.102
				c3.099,1.977,5.513,4.26,7.6,10.288L137.85,54.497z"/>
			<path fill="#F2A62F" d="M164.367,44.747c-0.044,0.025-0.092,0.05-0.141,0.071l-29.721,12.797
				c-0.709,0.302-1.529-0.029-1.83-0.738c-0.301-0.708,0.023-1.513,0.738-1.83l29.722-12.797c0.708-0.301,1.529,0.029,1.829,0.738
				C165.245,43.648,164.977,44.403,164.367,44.747z"/>
		</g>
	</g>
	<g>
		<g>
			<g>
				<path fill="#211D53" d="M137.287,129.417l-29.609,30.363l-7.57-3.349l25.625-36.349c2.511-4.163,8.443-4.445,11.339-0.54l0,0
					C138.781,121.847,138.866,127.021,137.287,129.417z"/>
			</g>
			<path fill="#243151" d="M88.688,156.268l14.968,10.489l4.052-7.085l-7.7-5.396C96.332,151.7,91.264,152.592,88.688,156.268
				L88.688,156.268z"/>
		</g>
		<g>
			<path fill="#2D307A" d="M157.76,111.317l-29.959,5.332l6.176,11.691h40.19c0,0,12.084-0.285,6.506-13.53L157.76,111.317z"/>
			<g>
				<path fill="#2D307A" d="M138.861,120.465l14.264,47.2l-8.041,4.613l-22.557-45.594c-2.3-4.284,0.484-9.53,5.32-10.028l0,0
					C130.702,116.363,137.606,117.884,138.861,120.465z"/>
			</g>
			<path fill="#243151" d="M141.4,183.022l14.951-7.87l-3.226-7.487l-8.319,4.379C140.834,174.136,139.311,179.051,141.4,183.022
				L141.4,183.022z"/>
		</g>
	</g>
	<g>
		<g>
			<g>
				<path fill="#EF4566" d="M156.041,75.783c0,0,1.209-5.292,2.745-6.924c1.091-1.161,5.025-4.869,7.186-5.666
					c0.642-0.237,1.352-0.162,1.937,0.195c2.585,1.581,9.692,6.724,13.176,17.196c3.356,10.085,4.075,38.79,4.075,38.79
					c-9.542,6.199-27.4-8.056-27.4-8.056C158.218,93.432,153.801,92.525,156.041,75.783z"/>
			</g>
		</g>
		<g>
			<path fill="#D83158" d="M154.119,111.965l14.07,0.644c4.778,0.276,6.899-3.301,7.127-6.31l0.625-24.272L154.119,111.965z"/>
			<g>
				<path fill="#F37C7D" d="M141.453,108.52l-8.323-2.975c-0.674-0.241-1.426-0.112-1.982,0.341l-3.703,3.017
					c-1.086,0.885-0.842,2.608,0.447,3.156l0,0c0.658,0.28,1.418,0.158,1.956-0.313l1.777-1.558c0,0,6.095,3.487,8.981,2.531
					L141.453,108.52z"/>
				<g>
					<g>
						<path fill="#EF4566" d="M162.664,71.555l-1.458,27.25l-22.164,5.754l0.919,8.296l27.082-2.832c1.945-0.129,3.731-1.02,5-2.437
							c0.702-0.784,1.072-1.812,1.195-2.856l3.364-28.263L162.664,71.555z"/>
					</g>
				</g>
			</g>
			<g>
				<path fill="#243151" d="M125.392,119.377l31.443-5.503c0.964-0.168,1.609-1.087,1.44-2.051l0,0
					c-0.169-0.964-1.087-1.609-2.05-1.44l-31.443,5.503c-0.964,0.169-1.609,1.088-1.44,2.051l0,0
					C123.509,118.902,124.428,119.547,125.392,119.377z"/>
				<path fill="#243151" d="M125.623,117.688c-0.183,0-0.367-0.076-0.498-0.225l-18.929-21.45c-0.243-0.274-0.216-0.694,0.058-0.937
					c0.274-0.243,0.695-0.218,0.938,0.059l18.93,21.451c0.242,0.274,0.216,0.694-0.059,0.937
					C125.936,117.634,125.779,117.688,125.623,117.688z"/>
			</g>
		</g>
	</g>
	<path fill="#243151" d="M162.408,62.889c0,0,8.966,21.563,21.227,10.816c12.263-10.747-13.373-16.943-13.373-16.943L162.408,62.889
		z"/>
</g>
<g>
	<g>
		<g>
			<g>
				<defs>
					<path id="XMLID_12_" d="M406.73,367.5l15.999-41.348c0.762-1.972,3.551-1.972,4.314,0l15.999,41.348H406.73z"/>
				</defs>
				<use xlink:href="#XMLID_12_"  overflow="visible" fill="#F2A62F"/>
				<clipPath id="XMLID_4_">
					<use xlink:href="#XMLID_12_"  overflow="visible"/>
				</clipPath>
				<rect x="410.437" y="335.043" clip-path="url(#XMLID_4_)" fill="#FAFAFA" width="28.405" height="7.955"/>
				<rect x="408.886" y="350.08" clip-path="url(#XMLID_4_)" fill="#FAFAFA" width="32.127" height="7.956"/>
			</g>
			<path fill="#EC9A25" d="M445.542,370.984h-41.129c-1.59,0-2.878-1.288-2.878-2.877l0,0c0-1.589,1.288-2.878,2.878-2.878h41.129
				c1.589,0,2.878,1.289,2.878,2.878l0,0C448.42,369.696,447.131,370.984,445.542,370.984z"/>
		</g>
		<g>
			<rect x="92.039" y="319.856" fill="#93BBE3" width="12.507" height="35.362"/>
			<rect x="157.987" y="319.856" fill="#93BBE3" width="12.508" height="35.362"/>
			<path fill="#5C64AE" d="M177.403,371.076H84.407c-3.015,0-5.459-2.444-5.459-5.461v-6.917c0-3.015,2.444-5.459,5.459-5.459
				h92.996c3.015,0,5.458,2.444,5.458,5.459v6.917C182.86,368.632,180.418,371.076,177.403,371.076z"/>
			<g>
				<defs>
					<path id="XMLID_7_" d="M175.684,322.723H87.272c-4.598,0-8.324-3.727-8.324-8.324v-15.241c0-4.598,3.727-8.324,8.324-8.324
						h88.412c4.598,0,8.324,3.727,8.324,8.324v15.241C184.008,318.996,180.282,322.723,175.684,322.723z"/>
				</defs>
				<use xlink:href="#XMLID_7_"  overflow="visible" fill="#F2A62F"/>
				<clipPath id="XMLID_5_">
					<use xlink:href="#XMLID_7_"  overflow="visible"/>
				</clipPath>
				<polygon clip-path="url(#XMLID_5_)" fill="#FFFFFF" points="77.632,333.912 58.699,333.912 102.816,284.967 121.75,284.967 				
					"/>
				<polygon clip-path="url(#XMLID_5_)" fill="#FFFFFF" points="154.539,333.912 135.605,333.912 179.724,284.967 198.657,284.967 
									"/>
				<polygon clip-path="url(#XMLID_5_)" fill="#FFFFFF" points="115.296,333.912 96.362,333.912 140.48,284.967 159.414,284.967 
									"/>
			</g>
		</g>
	</g>
	
		<line fill="none" stroke="#112236" stroke-width="0.6539" stroke-linecap="round" stroke-linejoin="round" stroke-miterlimit="10" x1="7.989" y1="371.334" x2="591.23" y2="371.334"/>
</g>
</svg>
