<svg xmlns="http://www.w3.org/2000/svg" width="40" height="20" viewBox="0 0 40 20">
  <g id="verve" transform="translate(-0.342 0.069)">
    <rect id="Rectangle_1895" data-name="Rectangle 1895" width="40" height="20" transform="translate(0.342 -0.069)" fill="none"/>
    <g id="Group_1598" data-name="Group 1598" transform="translate(3.343 3.475)">
      <rect id="Rectangle_1896" data-name="Rectangle 1896" width="35" height="12" transform="translate(0)" fill="none"/>
      <g id="verve-2" data-name="verve" transform="translate(1.255 0.907)">
        <path id="Path_1549" data-name="Path 1549" d="M10.149,9.15a6.091,6.091,0,0,1-1.023,1.02,5.616,5.616,0,0,1-2.759,1.141.383.383,0,0,0-.186.035H5.111a4.857,4.857,0,0,1-.863-.139,5.713,5.713,0,0,1-4.2-4.593C.02,6.465.027,6.316,0,6.172V6.053a.148.148,0,0,0,0-.119V5.441a.148.148,0,0,0,0-.119V5.2c.028-.188.032-.377.068-.566A5.762,5.762,0,0,1,.458,3.389,5.672,5.672,0,0,1,2.919.7,5.762,5.762,0,0,1,4.726.074C4.89.046,5.055.053,5.214.03H5.3a.156.156,0,0,0,.119,0h.494a.156.156,0,0,0,.119,0h.1a1.5,1.5,0,0,0,.342.054,5.608,5.608,0,0,1,4.193,2.944A5.143,5.143,0,0,1,11.2,4.509c0,.044-.033.054-.06.069a2.647,2.647,0,0,0-1.35,1.938,4.215,4.215,0,0,0,.092,1.943,3.1,3.1,0,0,0,.242.582C10.14,9.075,10.174,9.106,10.149,9.15Z" transform="translate(0 -0.028)" fill="#e42625"/>
        <path id="Path_1552" data-name="Path 1552" d="M64.419,0A.089.089,0,0,1,64.3,0Z" transform="translate(-59.007)" fill="#eb6160"/>
        <path id="Path_1553" data-name="Path 1553" d="M71.849,0a.089.089,0,0,1-.119,0Z" transform="translate(-65.826)" fill="#ea5e5d"/>
        <path id="Path_1554" data-name="Path 1554" d="M0,64.32a.087.087,0,0,1,0,.119Z" transform="translate(0 -59.025)" fill="#eb6160"/>
        <path id="Path_1555" data-name="Path 1555" d="M0,71.76a.087.087,0,0,1,0,.119Z" transform="translate(0 -65.853)" fill="#ea5e5d"/>
        <path id="Exclusion_1" data-name="Exclusion 1" d="M3.269,6.253a5.3,5.3,0,0,1-.822-.064A2.757,2.757,0,0,1,.471,4.953a.114.114,0,0,0-.012-.019A3.283,3.283,0,0,1,.053,3.749,3.79,3.79,0,0,1,.326,1.511,2.582,2.582,0,0,1,1.44.34L1.493.309,1.508.3A3.2,3.2,0,0,1,2.856,0c.054,0,.109,0,.162,0A2.3,2.3,0,0,1,5.291,1.771,4.1,4.1,0,0,1,5.42,3.45c-.01.087-.042.1-.116.1H1.726c-.063,0-.094,0-.107.016s0,.047.012.111A1.416,1.416,0,0,0,2.689,4.725a2.518,2.518,0,0,0,.692.088,5.528,5.528,0,0,0,.591-.038A6.438,6.438,0,0,0,5,4.574a.122.122,0,0,1,.032-.005c.026,0,.037.015.042.058.044.368.1.8.155,1.223.009.069-.03.08-.071.092l-.011,0A5.828,5.828,0,0,1,4,6.2,5.285,5.285,0,0,1,3.269,6.253ZM2.8,1.176a1.383,1.383,0,0,0-.358.049A1.224,1.224,0,0,0,1.622,2.27c-.006.038,0,.06.007.073s.039.018.076.018H2.779l.917,0c.148,0,.222,0,.249-.036s.006-.106-.035-.248A1.135,1.135,0,0,0,2.8,1.176Z" transform="translate(9.336 4.188)" fill="#033f5d"/>
        <path id="Exclusion_2" data-name="Exclusion 2" d="M3.281,6.259a4.955,4.955,0,0,1-1.027-.107A2.678,2.678,0,0,1,.079,3.89a3.912,3.912,0,0,1,.137-2.1A2.607,2.607,0,0,1,2.494.03,2.862,2.862,0,0,1,4,.219,2.222,2.222,0,0,1,5.23,1.585a4.151,4.151,0,0,1,.2,1.866c-.007.073-.026.108-.116.108-.218,0-.45-.005-.731-.005H1.725c-.06,0-.09,0-.1.014s0,.043.009.1A1.426,1.426,0,0,0,2.763,4.749a2.518,2.518,0,0,0,.619.07,5.407,5.407,0,0,0,.577-.037A6.363,6.363,0,0,0,5,4.58a.128.128,0,0,1,.034-.006c.027,0,.037.015.042.06.042.351.091.734.153,1.2.006.057,0,.09-.064.109A6.243,6.243,0,0,1,3.281,6.259ZM2.774,1.173a1.09,1.09,0,0,0-.7.25,1.362,1.362,0,0,0-.452.831c-.009.042-.012.072,0,.09s.04.023.087.023H3.888c.038,0,.058-.005.068-.018s.011-.035,0-.072a2.415,2.415,0,0,0-.088-.323A1.173,1.173,0,0,0,2.774,1.173Z" transform="translate(26.342 4.181)" fill="#033f5d"/>
        <path id="Path_1558" data-name="Path 1558" d="M256.328,56.434c.165-.388.306-.765.441-1.144a26.659,26.659,0,0,0,.8-2.707c.014-.056.033-.073.09-.073H259.2c.072,0,.082.016.061.082a31.481,31.481,0,0,1-1.994,5.36c-.073.151-.152.3-.224.449a.122.122,0,0,1-.13.075H255.74a.13.13,0,0,1-.133-.082,27.557,27.557,0,0,1-1.559-3.7q-.356-1.028-.648-2.077c-.03-.109-.03-.109.082-.109h1.49c.072,0,.1.021.117.091a25.585,25.585,0,0,0,1.187,3.708C256.29,56.345,256.305,56.381,256.328,56.434Z" transform="translate(-233.3 -48.188)" fill="#033f5d"/>
        <path id="Path_1559" data-name="Path 1559" d="M199.342,54.524V51.938a.185.185,0,0,1,.1-.179,3.951,3.951,0,0,1,1.928-.589,5.09,5.09,0,0,1,1.438.128c.06.014.091.028.074.108-.082.4-.152.793-.222,1.19-.013.074-.04.076-.1.058a1.878,1.878,0,0,0-1.218.024c-.3.118-.3.119-.3.437v4.007c0,.093-.026.112-.113.111-.487,0-.974,0-1.46,0-.1,0-.127-.016-.127-.121C199.344,56.253,199.342,55.388,199.342,54.524Z" transform="translate(-183.492 -46.951)" fill="#033f5d"/>
        <path id="Path_1560" data-name="Path 1560" d="M22.686,36.31c.175-.412.345-.8.51-1.2.589-1.409,1.142-2.832,1.646-4.272.017-.049.033-.082.1-.082h1.826a.225.225,0,0,1,.05,0c-.072.2-.142.393-.214.586-.741,1.976-1.573,3.9-2.49,5.8-.2.412-.412.823-.608,1.235a.185.185,0,0,1-.2.132c-.435-.007-.869,0-1.3,0a.113.113,0,0,1-.122-.07A69.363,69.363,0,0,1,18.6,30.91c-.016-.045-.031-.091-.049-.144H20.4a.11.11,0,0,1,.123.091q.968,2.711,2.119,5.355C22.652,36.238,22.665,36.264,22.686,36.31Z" transform="translate(-17.023 -28.228)" fill="#fefefe"/>
      </g>
    </g>
  </g>
</svg>
