<svg xmlns="http://www.w3.org/2000/svg" width="35.539" height="17.55" viewBox="0 0 35.539 17.55"><defs><style>.a{fill:#2566af;}.b{fill:#e6a540;}.c{fill:none;fill-rule:evenodd;}</style></defs><g transform="translate(2 3.561)"><path class="a" d="M13.78,9.685H11.34L12.865.31h2.441L13.781,9.684ZM9.288.31,6.96,6.758,6.685,5.37l-.82-4.215A1.048,1.048,0,0,0,4.7.31H.86L.815.469A9.15,9.15,0,0,1,3.368,1.541l2.12,8.144H8.031L11.914.31H9.287Zm19.2,9.374h2.24L28.77.31H26.808a1.12,1.12,0,0,0-1.126.7l-3.64,8.676h2.544L25.1,8.292h3.1l.286,1.393ZM25.8,6.368,27.08,2.86,27.8,6.368h-2Zm-3.564-3.8L22.58.552A7.032,7.032,0,0,0,20.386.143c-1.211,0-4.087.53-4.087,3.1,0,2.422,3.375,2.452,3.375,3.724s-3.028,1.044-4.027.242l-.363,2.1a6.834,6.834,0,0,0,2.755.53c1.666,0,4.178-.863,4.178-3.21,0-2.437-3.406-2.664-3.406-3.724s2.377-.924,3.422-.348Z"/><path class="b" d="M6.685,5.37l-.82-4.216A1.048,1.048,0,0,0,4.7.31H.86L.815.47A9.438,9.438,0,0,1,4.437,2.288,7.312,7.312,0,0,1,6.685,5.37Z"/><path class="c" d="M-2-3.561H33.539v17.55H-2Z"/></g></svg>